<?xml version="1.0" standalone="no"?><!DOCTYPE svg PUBLIC "-//W3C//DTD SVG 1.1//EN" "http://www.w3.org/Graphics/SVG/1.1/DTD/svg11.dtd"><svg t="1564027599108" class="icon" viewBox="0 0 1024 1024" version="1.1" xmlns="http://www.w3.org/2000/svg" p-id="1216" xmlns:xlink="http://www.w3.org/1999/xlink" width="200" height="200"><defs><style type="text/css"></style></defs><path d="M524.6 95.1c-87.7 0-158.7 76.6-158.7 171.2S437 437.5 524.6 437.5c87.7 0 158.7-76.6 158.7-171.2s-71-171.2-158.7-171.2z m0 289.7c-60.7 0-109.9-53.1-109.9-118.6s49.2-118.6 109.9-118.6 109.9 53.1 109.9 118.6-49.2 118.6-109.9 118.6z" fill="#9BCEE9" p-id="1217"></path><path d="M524.6 453.1c-96.1 0-174.3-83.8-174.3-186.8 0-49.7 18-96.5 50.6-131.7 33-35.5 76.9-55.1 123.7-55.1s90.7 19.6 123.7 55.1c32.6 35.2 50.6 82 50.6 131.7s-18 96.5-50.6 131.7c-33 35.5-76.9 55.1-123.7 55.1z m0-342.4c-78.9 0-143.1 69.8-143.1 155.6s64.2 155.6 143.1 155.6 143.1-69.8 143.1-155.6-64.2-155.6-143.1-155.6z m0 289.7c-69.2 0-125.5-60.2-125.5-134.2 0-74 56.3-134.2 125.5-134.2s125.5 60.2 125.5 134.2c0 74-56.3 134.2-125.5 134.2z m0-237.2c-52 0-94.3 46.2-94.3 103s42.3 103 94.3 103 94.3-46.2 94.3-103-42.3-103-94.3-103z" fill="#386990" p-id="1218"></path><path d="M271.7 257.7S32.4 646.2 144.5 736.3s285.9-22.8 285.9-22.8l-39.3-97.2S185.3 760.4 172.5 684c-21.7-129.1 145.1-261.8 145.1-261.8l-45.9-164.5z" fill="#9BCEE9" p-id="1219"></path><path d="M250 786.8c-4.9 0-9.8-0.2-14.5-0.5-38.7-2.5-72.6-15.3-100.7-37.9-30.1-24.2-41.3-67-33.1-127.1 6.1-44.8 22.9-100.1 50.1-164.3 45.7-108.2 106.1-206.6 106.7-207.6 3.3-5.3 9.3-8.1 15.5-7.3 6.1 0.9 11.2 5.3 12.9 11.3L332.6 418c1.7 6-0.4 12.5-5.3 16.4-1.6 1.3-159.3 128.5-139.4 247 0.9 5.7 3.2 7 5.1 7.9 5.6 2.4 30.1 6.8 107.1-35.2 43.6-23.8 81.6-50.3 82-50.6 3.9-2.7 8.8-3.5 13.4-2.2 4.6 1.4 8.3 4.7 10 9.1l39.3 97.2c2.8 6.9 0.3 14.9-6 19-1.9 1.2-46 29.7-105 47.1-29.5 8.7-57.6 13.1-83.8 13.1z m16.5-489.5c-21.2 37.1-56.8 102.7-86.2 172.3-26 61.6-42.1 114.1-47.8 156.2-6.6 48.4 0.8 81.5 21.7 98.4 26.2 21 58.1 31.6 95.6 31.6 22.8 0 47.7-3.9 74.5-11.8 38.3-11.2 70.5-27.9 86.5-37l-27-67c-15.6 10.3-40.9 26.3-68.7 41.5-26.8 14.6-50.5 25.4-70.3 32.1-27.8 9.4-48.7 10.8-63.8 4.5-9.1-3.8-20.7-12.4-23.9-31.5-5.4-32.4-0.6-67.3 14.5-103.9 11.7-28.4 29.5-57.9 53.1-87.7 29.8-37.7 60.9-66 75.2-78.3l-33.4-119.4z" fill="#386990" p-id="1220"></path><path d="M782.5 789H263.6c-25.7 0-46.6-20.9-46.6-46.6V233.1h612.1v509.3c0 25.7-20.9 46.6-46.6 46.6z" fill="#FDFFFF" p-id="1221"></path><path d="M782.5 804.6H263.6c-34.3 0-62.2-27.9-62.2-62.2V217.5h643.3v524.9c0 34.3-27.9 62.2-62.2 62.2zM232.6 248.7v493.7c0 17.1 13.9 31 31 31h518.9c17.1 0 31-13.9 31-31V248.7H232.6z" fill="#386990" p-id="1222"></path><path d="M755.3 534.1H293.8c-52.5 0-95-42.5-95-95v-187c0-28.2 22.9-51.1 51.1-51.1h549.3c28.2 0 51.1 22.9 51.1 51.1v187c0 52.5-42.6 95-95 95z" fill="#FDFFFF" p-id="1223"></path><path d="M755.3 549.7H293.8c-61 0-110.6-49.6-110.6-110.6v-187c0-36.8 29.9-66.7 66.7-66.7h549.3c36.8 0 66.7 29.9 66.7 66.7v187c0 61-49.6 110.6-110.6 110.6zM249.9 216.6c-19.6 0-35.5 15.9-35.5 35.5v187c0 43.8 35.6 79.4 79.4 79.4h461.5c43.8 0 79.4-35.6 79.4-79.4v-187c0-19.6-15.9-35.5-35.5-35.5H249.9z" fill="#386990" p-id="1224"></path><path d="M372.1 740.1h-3.2c-20.8 0-37.7-16.9-37.7-37.7V415.8c0-8.5 6.9-15.5 15.5-15.5h47.8c8.5 0 15.5 6.9 15.5 15.5v286.6c-0.1 20.8-17 37.7-37.9 37.7z" fill="#9BCEE9" p-id="1225"></path><path d="M372.1 755.7h-3.2c-29.4 0-53.3-23.9-53.3-53.3V415.8c0-17.2 14-31.1 31.1-31.1h47.8c17.2 0 31.1 14 31.1 31.1v286.6c-0.1 29.4-24.1 53.3-53.5 53.3z m-25.3-339.8v286.5c0 12.2 9.9 22.1 22.1 22.1h3.2c12.2 0 22.2-9.9 22.3-22.2V415.9h-47.6z" fill="#386990" p-id="1226"></path><path d="M404.1 637.4h-67.2c-15.2 0-27.5-12.3-27.5-27.5s12.3-27.5 27.5-27.5h67.2c15.2 0 27.5 12.3 27.5 27.5s-12.3 27.5-27.5 27.5z" fill="#FDFFFF" p-id="1227"></path><path d="M404.1 653h-67.2c-23.8 0-43.1-19.3-43.1-43.1s19.3-43.1 43.1-43.1h67.2c23.8 0 43.1 19.3 43.1 43.1S427.9 653 404.1 653z m-67.2-55c-6.6 0-11.9 5.3-11.9 11.9s5.3 11.9 11.9 11.9h67.2c6.6 0 11.9-5.3 11.9-11.9s-5.3-11.9-11.9-11.9h-67.2z" fill="#386990" p-id="1228"></path><path d="M667.3 740.1h-3.2c-20.8 0-37.7-16.9-37.7-37.7V415.8c0-8.5 6.9-15.5 15.5-15.5h47.8c8.5 0 15.5 6.9 15.5 15.5v286.6c-0.1 20.8-17 37.7-37.9 37.7z" fill="#9BCEE9" p-id="1229"></path><path d="M667.3 755.7h-3.2c-29.4 0-53.3-23.9-53.3-53.3V415.8c0-17.2 14-31.1 31.1-31.1h47.8c17.2 0 31.1 14 31.1 31.1v286.6c-0.1 29.4-24.1 53.3-53.5 53.3zM642 415.9v286.5c0 12.2 9.9 22.1 22.1 22.1h3.2c12.2 0 22.2-9.9 22.3-22.2V415.9H642z" fill="#386990" p-id="1230"></path><path d="M699.3 637.4h-67.2c-15.2 0-27.5-12.3-27.5-27.5s12.3-27.5 27.5-27.5h67.2c15.2 0 27.5 12.3 27.5 27.5s-12.3 27.5-27.5 27.5z" fill="#FDFFFF" p-id="1231"></path><path d="M699.3 653h-67.2c-23.8 0-43.1-19.3-43.1-43.1s19.3-43.1 43.1-43.1h67.2c23.8 0 43.1 19.3 43.1 43.1S723.1 653 699.3 653z m-67.2-55c-6.6 0-11.9 5.3-11.9 11.9s5.3 11.9 11.9 11.9h67.2c6.6 0 11.9-5.3 11.9-11.9s-5.3-11.9-11.9-11.9h-67.2z" fill="#386990" p-id="1232"></path></svg>